<svg width="84" height="80" viewBox="0 0 84 80" fill="none" xmlns="http://www.w3.org/2000/svg">
<path d="M62.1948 63.5317C61.7532 63.5317 61.3148 63.3424 61.0102 62.9763C60.4671 62.3224 60.5563 61.3532 61.2102 60.8101L70.8778 52.7748C71.5316 52.2317 72.5024 52.3225 73.0439 52.9748C73.587 53.6286 73.4978 54.5979 72.8439 55.1409L63.1763 63.1763C62.8902 63.4163 62.5409 63.5317 62.1948 63.5317Z" fill="#C3967C"/>
<path d="M62.1931 63.5322C61.8454 63.5322 61.4977 63.4152 61.2101 63.1768L55.9209 58.7814C55.267 58.2384 55.1778 57.2691 55.7209 56.6153C56.2655 55.9614 57.2347 55.8738 57.887 56.4153L63.1762 60.8106C63.83 61.3537 63.9193 62.3229 63.3762 62.9768C63.0731 63.3429 62.6347 63.5322 62.1931 63.5322Z" fill="#C3967C"/>
<path d="M33.5152 76.923C33.249 76.923 32.9844 76.8553 32.7459 76.7168L0.769226 58.2554C0.292306 57.9816 0 57.4723 0 56.9231V20.0003C0 19.451 0.292306 18.9418 0.769226 18.668L32.7459 0.206537C33.2229 -0.0688457 33.8075 -0.0688457 34.2844 0.206537L66.2611 18.668C66.738 18.9433 67.0303 19.451 67.0303 20.0003V30.5817C67.0303 31.431 66.3411 32.1202 65.4919 32.1202C64.6427 32.1202 63.9534 31.431 63.9534 30.5817V20.8879L33.5152 3.31575L3.0769 20.8879V56.0354L33.5152 73.6076L44.1382 67.4738C44.8751 67.0476 45.8135 67.3015 46.2397 68.0369C46.6643 68.7738 46.412 69.7138 45.6766 70.1384L34.2844 76.7153C34.0459 76.8553 33.7813 76.923 33.5152 76.923Z" fill="#C3967C"/>
<path d="M64.3846 80.0004C64.1939 80.0004 64.0046 79.965 63.8246 79.8958C52.9786 75.6573 45.6909 64.9851 45.6909 53.3406V47.1868C45.6909 46.556 46.0755 45.9898 46.6617 45.7575C52.6616 43.3729 58.3108 40.1806 63.4539 36.2699C64.0031 35.8514 64.7677 35.8514 65.3169 36.2699C70.4554 40.1806 76.1046 43.3729 82.1076 45.7575C82.6922 45.9898 83.0768 46.556 83.0768 47.1868V53.3406C83.0768 64.9851 75.7892 75.6558 64.9431 79.8958C64.7646 79.965 64.5739 80.0004 64.3846 80.0004ZM48.7678 48.2221V53.3406C48.7678 63.5266 55.0185 72.8774 64.3846 76.8019C73.7492 72.8789 79.9999 63.5266 79.9999 53.3406V48.2221C74.4553 45.9283 69.2123 42.9699 64.3846 39.4145C59.5524 42.9729 54.3093 45.9298 48.7678 48.2221Z" fill="#C3967C"/>
<path d="M14.4509 28.9922C13.9186 28.9922 13.4017 28.7168 13.1171 28.2229C12.6925 27.486 12.9448 26.546 13.6801 26.1214L45.6569 7.65999C46.3922 7.23384 47.3322 7.48769 47.7584 8.22307C48.183 8.95999 47.9307 9.89998 47.1953 10.3246L15.2186 28.786C14.9771 28.926 14.7124 28.9922 14.4509 28.9922Z" fill="#C3967C"/>
<path d="M20.6047 32.5462C20.0724 32.5462 19.5555 32.2708 19.2709 31.7769C18.8463 31.04 19.0986 30.1 19.834 29.6754L51.8107 11.214C52.5445 10.7894 53.486 11.0417 53.9122 11.7771C54.3368 12.514 54.0845 13.454 53.3491 13.8786L21.3724 32.34C21.1309 32.48 20.8663 32.5462 20.6047 32.5462Z" fill="#C3967C"/>
<path d="M20.6031 43.205C19.7539 43.205 19.0647 42.5158 19.0647 41.6666V31.0082C19.0647 30.159 19.7539 29.4697 20.6031 29.4697C21.4524 29.4697 22.1416 30.159 22.1416 31.0082V41.6666C22.1416 42.5158 21.4524 43.205 20.6031 43.205Z" fill="#C3967C"/>
<path d="M20.6012 43.2044C20.3412 43.2044 20.0751 43.1382 19.8336 42.9982L13.6798 39.4444C12.9428 39.0198 12.6921 38.0783 13.1167 37.3429C13.5428 36.6075 14.4828 36.3521 15.2182 36.7798L21.372 40.3336C22.1089 40.7583 22.3597 41.6998 21.9351 42.4352C21.6505 42.929 21.1335 43.2044 20.6012 43.2044Z" fill="#C3967C"/>
<path d="M14.4493 39.6513C13.6001 39.6513 12.9109 38.9621 12.9109 38.1129V27.4545C12.9109 26.6052 13.6001 25.916 14.4493 25.916C15.2986 25.916 15.9878 26.6052 15.9878 27.4545V38.1129C15.9878 38.9636 15.2986 39.6513 14.4493 39.6513Z" fill="#C3967C"/>
<path d="M33.5153 76.9226C32.666 76.9226 31.9768 76.2334 31.9768 75.3841V38.4613C31.9768 37.6121 32.666 36.9229 33.5153 36.9229C34.3645 36.9229 35.0537 37.6121 35.0537 38.4613V75.3841C35.0537 76.2334 34.3645 76.9226 33.5153 76.9226Z" fill="#C3967C"/>
<path d="M33.514 39.9996C33.254 39.9996 32.9894 39.9335 32.7463 39.7935L0.769594 21.3321C0.0326756 20.9074 -0.218092 19.9674 0.20652 19.2305C0.631133 18.4936 1.57113 18.2428 2.30805 18.6675L34.2848 37.1289C35.0217 37.5535 35.2724 38.495 34.8478 39.2304C34.5617 39.7242 34.0448 39.9996 33.514 39.9996Z" fill="#C3967C"/>
<path d="M33.5168 40.0003C32.9845 40.0003 32.4676 39.7249 32.183 39.231C31.7584 38.4941 32.0107 37.5541 32.7461 37.1295L64.7228 18.6681C65.4566 18.2435 66.3982 18.4958 66.8243 19.2312C67.2489 19.9681 66.9966 20.9081 66.2612 21.3327L34.2845 39.7941C34.0414 39.9341 33.7768 40.0003 33.5168 40.0003Z" fill="#C3967C"/>
</svg>
