<svg width="90" height="80" viewBox="0 0 90 80" fill="none" xmlns="http://www.w3.org/2000/svg">
<path d="M89.9157 1.52538C90.1217 0.989521 89.9367 0.357231 89.5007 0.103339C89.0648 -0.149332 88.5447 0.081369 88.3367 0.609904C85.8817 6.94988 80.2547 10.2041 74.2207 13.2423C73.9477 13.379 73.6777 13.5145 73.4057 13.6499C72.1768 13.982 70.9997 14.491 69.9487 15.111C69.4317 15.4174 68.9327 15.758 68.4417 16.112C60.4207 20.04 52.6597 23.5359 44.9997 26.0772C37.3377 23.5346 29.5737 20.0363 21.5497 16.1071C21.0607 15.7543 20.5647 15.415 20.0507 15.1098C19.0017 14.4922 17.8297 13.9844 16.6047 13.6524C16.3297 13.5145 16.0567 13.3777 15.7807 13.2398C9.74275 10.2029 4.12275 6.94866 1.66375 0.608682C1.45475 0.0801467 0.934745 -0.149331 0.497745 0.102119C0.0627453 0.357232 -0.121255 0.98952 0.0837453 1.52416C2.30575 7.24894 6.83975 10.6936 11.7527 13.44C10.0557 13.8013 8.41675 14.6789 7.00175 16.2731C4.67074 18.9109 3.87975 23.033 5.07875 26.3091C5.38875 27.1502 5.78675 27.8545 6.24675 28.4575C4.54175 29.307 3.27975 31.0318 2.77975 33.2057C2.29675 35.337 2.63375 37.5573 3.71075 39.2991C4.33875 40.3074 5.12175 41.2155 5.97175 41.9259C7.05575 42.8304 8.24275 43.4627 9.44175 43.9266C8.82275 45.3071 8.51375 46.8939 8.71975 48.5711C9.07775 51.486 11.0517 54.1128 13.7377 55.2699C15.7037 56.1122 17.7557 56.1586 19.6387 56.0304C19.6277 56.9861 19.7917 57.9236 20.1537 58.7548C21.1157 60.9642 23.2307 62.252 26.2687 62.4851C31.9907 62.9111 37.4567 60.6908 42.5787 57.5452C42.6387 57.6404 42.6977 57.7332 42.7567 57.8308C43.2357 58.6169 43.6567 59.4506 44.0277 60.316C41.7827 66.2923 41.7817 73.5148 44.2187 79.408C44.2447 79.4702 44.2807 79.5227 44.3147 79.5752C44.3257 79.5923 44.3327 79.6118 44.3447 79.6289C44.4157 79.729 44.5007 79.8071 44.5927 79.8682C44.5987 79.8718 44.6017 79.8779 44.6067 79.8816C44.6317 79.8975 44.6587 79.9048 44.6847 79.917C44.7187 79.9329 44.7507 79.9524 44.7857 79.9634C44.8567 79.9866 44.9287 80 44.9987 80C45.0687 80 45.1407 79.9866 45.2117 79.9634C45.2397 79.9548 45.2657 79.939 45.2927 79.9268C45.3267 79.9121 45.3607 79.9011 45.3937 79.8816C45.4017 79.8767 45.4067 79.8669 45.4147 79.8608C45.5007 79.8022 45.5797 79.7278 45.6467 79.635C45.6637 79.6106 45.6757 79.5838 45.6907 79.5581C45.7207 79.5093 45.7527 79.4641 45.7767 79.408C48.2127 73.516 48.2137 66.291 45.9697 60.3173C46.3407 59.4518 46.7617 58.6181 47.2417 57.832C47.3007 57.7344 47.3587 57.6416 47.4217 57.5464C52.5407 60.6859 58.0067 62.8989 63.7257 62.4863C66.7667 62.2544 68.8808 60.9654 69.8408 58.7561C70.2028 57.9248 70.3668 56.9886 70.3577 56.0328C72.2418 56.1622 74.2968 56.1158 76.2598 55.2724C78.9508 54.1152 80.9167 51.4896 81.2797 48.5735C81.4857 46.8964 81.1758 45.3096 80.5557 43.929C81.7547 43.4652 82.9417 42.8329 84.0257 41.9272C84.8818 41.2168 85.6637 40.3086 86.2858 39.3004C87.3668 37.5585 87.7028 35.3345 87.2158 33.2045C86.7158 31.0281 85.4577 29.3095 83.7517 28.4587C84.2107 27.8557 84.6087 27.1502 84.9177 26.3104C86.1187 23.0342 85.3288 18.9121 82.9967 16.2743C81.5807 14.6802 79.9397 13.8025 78.2427 13.44C83.1587 10.6948 87.6917 7.25016 89.9157 1.52538ZM63.0727 20.9725C62.7987 21.2557 62.5257 21.5389 62.2537 21.8209L60.8277 23.3027C58.8937 25.2704 56.9107 27.0989 54.8867 28.7968C52.7187 28.3354 50.5477 27.7727 48.3707 27.1306C53.2147 25.3827 58.1017 23.2893 63.0727 20.9725ZM42.9477 36.9091C40.5537 38.1884 38.1367 39.2918 35.7097 40.1914C35.5617 40.0828 35.4147 39.9668 35.2697 39.8521C33.9707 38.8475 32.6937 37.7941 31.4177 36.7322C29.5827 35.2149 27.7137 33.6732 25.7687 32.2719C28.7577 32.0596 31.7397 31.6494 34.7207 31.044C37.4017 33.2436 40.1537 35.1966 42.9477 36.9091ZM37.2217 30.4959C39.8087 29.8856 42.3997 29.1374 44.9997 28.2878C47.5997 29.1386 50.1907 29.8856 52.7787 30.4959C50.2377 32.4758 47.6367 34.2274 45.0007 35.763C42.3647 34.2274 39.7637 32.4758 37.2217 30.4959ZM44.9997 38.1163C47.4107 39.4798 49.8487 40.6687 52.3007 41.6562C49.9367 43.3346 47.4967 44.8482 44.9997 46.2006C42.5017 44.8482 40.0607 43.3346 37.6967 41.6562C40.1497 40.6675 42.5887 39.4786 44.9997 38.1163ZM35.4567 42.5058C37.8377 44.2793 40.3007 45.8857 42.8247 47.3309C41.5657 47.9559 40.2937 48.543 39.0087 49.0838C38.7347 48.8738 38.4637 48.6675 38.1917 48.4539L35.8187 46.6339C34.4007 45.5549 32.9767 44.5845 31.5527 43.7069C32.8537 43.3553 34.1567 42.9672 35.4567 42.5058ZM40.8937 50.529C42.2777 49.9113 43.6447 49.24 44.9977 48.5271C46.3517 49.2412 47.7207 49.915 49.1067 50.5339C47.7667 51.5494 46.3957 52.5589 45.0007 53.5269C43.6057 52.5589 42.2347 51.5482 40.8937 50.529ZM51.8107 48.4539C51.5407 48.6675 51.2677 48.8738 50.9917 49.0838C49.7067 48.543 48.4347 47.9559 47.1747 47.3309C49.6987 45.8857 52.1607 44.2793 54.5427 42.5058C55.8437 42.9672 57.1457 43.3541 58.4487 43.7069C57.0237 44.5845 55.5987 45.5549 54.1807 46.6339L51.8107 48.4539ZM54.2917 40.1914C51.8647 39.2918 49.4477 38.1884 47.0537 36.9091C49.8477 35.1966 52.5987 33.2436 55.2807 31.0452C58.2617 31.6519 61.2427 32.0632 64.2327 32.2744C62.2868 33.6757 60.4157 35.2186 58.5777 36.7383C57.3017 37.7941 56.0267 38.8475 54.7297 39.8521C54.5847 39.9668 54.4357 40.0816 54.2917 40.1914ZM41.6287 27.1306C39.4517 27.7715 37.2797 28.3354 35.1117 28.7968C33.0887 27.1026 31.1057 25.2716 29.1727 23.3027L27.7527 21.8294C27.4787 21.545 27.2037 21.2594 26.9267 20.9738C31.8977 23.2893 36.7847 25.3827 41.6287 27.1306ZM8.18575 17.844C9.77075 16.0583 11.7197 15.3686 13.6857 15.3686C14.4827 15.3686 15.2817 15.4858 16.0607 15.6847C17.6407 16.4782 19.2107 17.2581 20.7697 18.0223C22.8547 19.5481 24.7627 21.523 26.6197 23.4529L28.0517 24.9372C29.5507 26.4605 31.0847 27.9106 32.6387 29.2814C29.3467 29.8673 26.0577 30.2127 22.7577 30.2884C21.8417 29.7428 20.9077 29.2399 19.9477 28.8041C15.9327 26.9854 11.7477 26.6143 8.16374 27.7068C7.53874 27.1294 7.02575 26.3909 6.67475 25.4327C5.77875 22.989 6.39875 19.8666 8.18575 17.844ZM17.8007 30.1883C16.3807 30.098 14.9587 29.9625 13.5317 29.7599C12.7297 29.6464 11.9347 29.4987 11.1767 29.2826C11.5757 29.2472 11.9767 29.2204 12.3857 29.2204C14.1427 29.2191 15.9757 29.5451 17.8007 30.1883ZM6.95675 40.1682C6.25775 39.5848 5.61974 38.8402 5.10474 38.0126C4.35875 36.8078 4.12475 35.2625 4.46275 33.7782C4.81775 32.2353 5.71575 31.011 6.92675 30.4202C7.23575 30.2689 7.55875 30.1468 7.88175 30.0248C9.49575 31.1502 11.4577 31.6091 13.3297 31.8728C16.3557 32.3037 19.3607 32.466 22.3547 32.4196C25.1757 34.1493 27.8397 36.3489 30.4367 38.5021C31.4417 39.3309 32.4487 40.1621 33.4647 40.969C31.9447 41.4572 30.4237 41.8637 28.9047 42.1969C27.0307 41.2094 25.1587 40.3916 23.3017 39.7667C20.6347 38.8707 16.6977 37.8991 13.2407 39.7251C12.2547 40.2464 11.3007 41.0654 10.5207 42.0944C9.27775 41.6745 8.04475 41.0739 6.95675 40.1682ZM25.4157 42.8182C21.7737 43.3321 18.1607 43.4029 14.6347 42.9757C13.9997 42.8988 13.3147 42.7963 12.6117 42.6547C13.0327 42.2567 13.4827 41.9247 13.9387 41.6843C15.0177 41.1118 16.2337 40.8262 17.6317 40.8262C19.1387 40.8262 20.8547 41.1606 22.8397 41.8259C23.6947 42.1127 24.5547 42.4496 25.4157 42.8182ZM14.3177 53.2547C12.2297 52.3648 10.7127 50.3984 10.4487 48.2537C10.2817 46.9037 10.6107 45.6049 11.2057 44.4978C12.3477 44.7957 13.4607 44.9727 14.4637 45.0935C19.1047 45.6587 23.8797 45.3962 28.6777 44.3965C30.7507 45.5207 32.8287 46.8695 34.8967 48.4441L35.7387 49.0923C32.8497 47.8424 29.7137 47.453 26.6887 48.1109C24.3287 48.6236 22.5097 49.688 21.2707 51.2809C20.6727 52.0462 20.2377 52.9397 19.9647 53.8735C18.1387 54.0249 16.1377 54.0383 14.3177 53.2547ZM34.4597 50.8024C30.3787 52.1793 26.2007 53.135 21.9847 53.6526C22.1477 53.3206 22.3307 53.0105 22.5367 52.7469C23.5137 51.4982 25.0137 50.6376 26.9937 50.2067C27.8857 50.0139 28.7827 49.9174 29.6787 49.9174C31.2957 49.9187 32.9107 50.225 34.4597 50.8024ZM26.3747 60.3527C24.7027 60.2306 22.5367 59.6752 21.6977 57.7539C21.4407 57.1631 21.3577 56.5125 21.3927 55.8656C26.7167 55.2785 31.9807 54.0078 37.0807 52.089C38.6717 53.0618 40.1367 54.3361 41.3847 55.8815C36.6067 58.7548 31.5737 60.7445 26.3747 60.3527ZM42.4517 54.1848C42.7047 54.3691 42.9617 54.5498 43.2167 54.7316C43.1467 54.7768 43.0777 54.8256 43.0077 54.8708C42.8287 54.634 42.6397 54.4094 42.4517 54.1848ZM44.9997 76.1794C43.8077 71.9841 43.8317 67.3042 44.9997 63.1015C46.1667 67.3042 46.1917 71.9841 44.9997 76.1794ZM44.1567 56.5589C44.1567 56.5528 44.1537 56.5504 44.1497 56.5455C44.4357 56.3587 44.7167 56.1622 45.0007 55.9706C45.2837 56.1622 45.5647 56.3587 45.8507 56.5455C45.8497 56.5504 45.8427 56.5589 45.8427 56.5589C45.5407 57.0545 45.2637 57.5721 45.0007 58.0969C44.7357 57.5708 44.4597 57.0545 44.1567 56.5589ZM46.9947 54.8696C46.9247 54.8244 46.8557 54.7756 46.7857 54.7304C47.0407 54.5485 47.2977 54.3679 47.5507 54.1836C47.3627 54.4106 47.1737 54.634 46.9947 54.8696ZM68.3027 57.7539C67.4638 59.6752 65.2947 60.2294 63.6247 60.3527C58.4187 60.7481 53.3947 58.7548 48.6157 55.8815C49.8667 54.3361 51.3347 53.0642 52.9257 52.0914C58.0267 54.009 63.2907 55.2797 68.6077 55.8656C68.6428 56.5125 68.5587 57.1619 68.3027 57.7539ZM55.5537 50.8085C57.9577 49.9126 60.5217 49.6672 63.0037 50.208C64.9867 50.6388 66.4907 51.4982 67.4637 52.7481C67.6697 53.013 67.8547 53.323 68.0177 53.655C63.8067 53.1375 59.6347 52.1817 55.5537 50.8085ZM79.5518 48.2562C79.2858 50.3984 77.7687 52.3636 75.6837 53.2547C73.8677 54.0408 71.8607 54.0261 70.0368 53.8735C69.7647 52.9385 69.3288 52.0462 68.7318 51.2797C67.4908 49.6867 65.6697 48.6211 63.3117 48.1097C60.2817 47.4542 57.1397 47.846 54.2467 49.1008L55.1037 48.4429C57.1737 46.8683 59.2517 45.5195 61.3247 44.3953C66.1197 45.3938 70.8928 45.655 75.5368 45.0935C76.5387 44.9714 77.6517 44.7957 78.7947 44.4978C79.3897 45.6049 79.7197 46.9037 79.5518 48.2562ZM64.5847 42.8182C65.4457 42.4496 66.3057 42.1139 67.1618 41.8271C70.9847 40.5442 73.8137 40.4966 76.0617 41.6843C76.5177 41.9247 76.9678 42.2555 77.3887 42.6547C76.6847 42.7963 75.9997 42.8988 75.3647 42.9757C71.8387 43.4029 68.2267 43.3321 64.5847 42.8182ZM85.5358 33.7758C85.8768 35.2637 85.6398 36.8066 84.8958 38.0138C84.3857 38.8426 83.7458 39.5848 83.0427 40.1695C81.9548 41.0752 80.7217 41.6757 79.4777 42.0968C78.6977 41.0666 77.7448 40.2476 76.7588 39.7264C73.2968 37.8979 69.3587 38.878 66.6967 39.7679C64.8397 40.3916 62.9687 41.2107 61.0947 42.1982C59.5757 41.8637 58.0547 41.4572 56.5347 40.969C57.5467 40.1621 58.5547 39.3345 59.5557 38.5021C62.1547 36.3513 64.8217 34.1505 67.6447 32.4209C70.6377 32.4673 73.6427 32.3037 76.6687 31.8728C78.5407 31.6091 80.5007 31.1526 82.1127 30.0296C82.4367 30.1517 82.7617 30.2701 83.0707 30.4202C84.2847 31.011 85.1818 32.2329 85.5358 33.7758ZM72.2057 30.1871C74.4557 29.3961 76.7158 29.0922 78.8327 29.2789C78.0727 29.4962 77.2738 29.6451 76.4688 29.7587C75.0437 29.9613 73.6227 30.0968 72.2057 30.1871ZM83.3257 25.4327C82.9737 26.3909 82.4607 27.1294 81.8347 27.7068C78.2497 26.6143 74.0697 26.9866 70.0547 28.8041C69.0947 29.2399 68.1608 29.7428 67.2448 30.2884C63.9438 30.2127 60.6537 29.8673 57.3607 29.2802C58.9177 27.9106 60.4487 26.4593 61.9467 24.9359L63.3887 23.4431C65.2417 21.5157 67.1507 19.5432 69.2347 18.0186C70.7887 17.2569 72.3528 16.4794 73.9268 15.6896C76.6338 14.9951 79.5898 15.3344 81.8138 17.8428C83.6028 19.8666 84.2257 22.989 83.3257 25.4327Z" fill="#C3967C"/>
</svg>
