<svg width="82" height="80" viewBox="0 0 82 80" fill="none" xmlns="http://www.w3.org/2000/svg">
<path d="M40.8513 39.8701C36.8099 39.8701 33.0104 41.449 30.1533 44.3167C30.1533 44.3167 30.1525 44.3167 30.1517 44.3176C30.1508 44.3184 30.1508 44.3184 30.1508 44.3193C24.2548 50.2382 24.2548 59.8693 30.1525 65.7891C30.1525 65.7891 30.1525 65.7891 30.1533 65.7899C32.6903 68.3348 35.9693 69.8579 39.5002 70.1697C39.5499 70.179 39.5946 70.1993 39.6468 70.1993C39.6788 70.1993 39.7057 70.1841 39.7361 70.1816C40.1058 70.2086 40.4764 70.2357 40.8513 70.2357C44.8926 70.2357 48.6921 68.6568 51.5509 65.7891L51.5517 65.7882C54.4879 62.8402 55.9602 58.9717 55.972 55.099C55.9729 55.0829 55.9813 55.0702 55.9813 55.0533C55.9813 55.0364 55.9729 55.0237 55.972 55.0077C55.9602 51.135 54.4879 47.2665 51.5517 44.3184L51.5509 44.3176C48.6938 41.449 44.8934 39.8701 40.8513 39.8701ZM40.4899 68.5275V68.1091C40.4899 68.1091 40.4899 68.1091 40.4899 68.1083V67.5023C40.4899 67.5014 40.4899 67.5006 40.4899 67.4989C40.4899 67.4981 40.4899 67.4972 40.4899 67.4955C40.4899 67.493 40.4899 67.4905 40.4899 67.4879C40.4899 67.4871 40.4899 67.4862 40.4899 67.4862V66.8625C40.4899 66.8616 40.4899 66.8608 40.4899 66.8608C40.4899 66.3942 40.1134 66.0164 39.6485 66.0156C39.1835 66.0156 38.8062 66.3934 38.8053 66.8591V67.4862V67.4896V67.493C38.8053 67.4938 38.8053 67.4955 38.8053 67.4972C38.8053 67.4981 38.8053 67.4981 38.8053 67.4989C38.8053 67.4998 38.8053 67.5006 38.8053 67.5006C38.8053 67.5014 38.8053 67.5023 38.8053 67.5023V67.7795C38.8053 67.7854 38.8053 67.7922 38.8053 67.7973C38.8053 67.7973 38.8053 67.7981 38.8053 67.799C38.8053 67.799 38.8053 67.7998 38.8053 67.8006C38.8053 67.8006 38.8053 67.8023 38.8053 67.8032C38.8053 67.8032 38.8053 67.804 38.8053 67.8049C38.8053 67.8108 38.8053 67.8175 38.8053 67.8235V68.3728C36.2675 67.9857 33.9108 66.8836 31.9685 65.1611L33.0997 64.0251C33.2639 63.8603 33.3456 63.6439 33.3456 63.4267C33.3456 63.2104 33.2631 62.994 33.0988 62.83C32.7703 62.4995 32.2372 62.4995 31.9078 62.83L30.7783 63.9643C28.74 61.645 27.6307 58.7933 27.4521 55.8858H29.1089C29.5738 55.8858 29.9512 55.508 29.9512 55.0406C29.9512 54.5732 29.5738 54.1954 29.1089 54.1954H27.453C27.6349 51.2955 28.7442 48.4514 30.7783 46.139L31.907 47.2715C32.0712 47.4372 32.2877 47.52 32.5033 47.52C32.7181 47.52 32.9337 47.4372 33.098 47.2732C33.2631 47.1084 33.3456 46.8912 33.3456 46.674C33.3456 46.4576 33.2631 46.2429 33.0997 46.0781L31.9676 44.9422C34.2216 42.9433 37.0315 41.7786 40.0351 41.5986V43.2332C40.0351 43.7006 40.4124 44.0784 40.8774 44.0784C41.3423 44.0784 41.7197 43.7006 41.7197 43.2332V41.6011C44.7039 41.7921 47.4944 42.9551 49.7366 44.9422L48.6037 46.0781C48.4394 46.2429 48.3577 46.4593 48.3577 46.6757C48.3577 46.892 48.4411 47.1084 48.6054 47.2732C48.7696 47.4372 48.9844 47.52 49.2 47.52C49.4156 47.52 49.6321 47.4372 49.7964 47.2715L50.9259 46.139C52.9625 48.4548 54.071 51.3023 54.2512 54.2064H52.6576C52.1918 54.2064 51.8153 54.5842 51.8153 55.0516C51.8153 55.519 52.1918 55.8968 52.6576 55.8968H54.2512C54.071 58.8009 52.9625 61.6484 50.9259 63.9643L49.7964 62.8309C49.467 62.4987 48.9347 62.5004 48.6054 62.8292C48.4411 62.994 48.3577 63.2104 48.3577 63.4267C48.3577 63.6431 48.4394 63.8595 48.6037 64.0243L49.7366 65.1611C47.2788 67.34 44.1614 68.5436 40.8529 68.5436C40.73 68.5444 40.6112 68.5301 40.4899 68.5275Z" fill="#C3967C"/>
<path d="M45.745 48.9481L42.3 52.4041C41.1537 51.8015 39.6476 51.9578 38.7068 52.8985C38.1332 53.4733 37.8173 54.2382 37.8173 55.0512C37.8173 55.5727 37.9605 56.0689 38.2048 56.5126L37.1722 57.5497C36.8437 57.8801 36.8437 58.4143 37.1722 58.7448C37.3364 58.9096 37.552 58.9924 37.7676 58.9924C37.9833 58.9924 38.1989 58.9096 38.364 58.7448L39.3958 57.7086C39.8388 57.9537 40.3324 58.0974 40.853 58.0974C41.6624 58.0974 42.4247 57.7813 42.9974 57.2048C43.9703 56.2261 44.1286 54.7478 43.4977 53.5916L46.9351 50.1432C47.2645 49.8127 47.2645 49.2785 46.9351 48.9481C46.6058 48.6176 46.0735 48.6176 45.745 48.9481ZM41.8064 56.0106C41.296 56.5236 40.4091 56.5211 39.8978 56.0089C39.6426 55.7528 39.5019 55.413 39.5019 55.0504C39.5019 54.6887 39.6426 54.3497 39.897 54.0945C40.1522 53.8384 40.4916 53.6972 40.8521 53.6972C41.2126 53.6972 41.5521 53.8384 41.8064 54.0936C42.332 54.6227 42.332 55.4823 41.8064 56.0106Z" fill="#C3967C"/>
<path d="M80.86 19.9349H64.4842L61.5522 10.5599C61.4419 10.2075 61.1159 9.96746 60.7487 9.96746H52.8303L49.8975 0.592486C49.7871 0.240037 49.4611 0 49.0939 0H32.1908C31.8228 0 31.4976 0.240037 31.3873 0.592486L28.4561 9.96661H20.7568C20.3887 9.96661 20.0636 10.2067 19.9532 10.5591L17.0212 19.9349H0.842533C0.37759 19.9349 0.000244141 20.3136 0.000244141 20.7801C0.000244141 23.8727 2.52122 27.6085 5.65116 27.6085H34.9965V34.4107H13.4423C12.9774 34.4107 12.6 34.7893 12.6 35.2559V74.005H11.0376C10.5727 74.005 10.1953 74.3828 10.1953 74.8502V79.1548C10.1953 79.6222 10.5727 80 11.0376 80H70.6658C71.1316 80 71.5081 79.6222 71.5081 79.1548V74.8502C71.5081 74.3828 71.1316 74.005 70.6658 74.005H69.1033V35.2559C69.1033 34.7893 68.7268 34.4107 68.261 34.4107H46.7616V27.6085H76.0514C79.1822 27.6085 81.7023 23.8727 81.7023 20.7801C81.7023 20.3136 81.3258 19.9349 80.86 19.9349ZM62.7179 19.9349H41.8763L44.4638 11.6579H52.2104H52.2272H60.1296L62.7179 19.9349ZM40.7527 17.8794L38.807 11.6579H42.6984L40.7527 17.8794ZM32.8099 1.69125H48.4757L51.0632 9.96746H43.8456H37.6607H30.2216L32.8099 1.69125ZM21.3759 11.6579H29.0752H37.0424L39.6299 19.9349H18.7875L21.3759 11.6579ZM69.8235 78.3088H11.8799V75.6945H69.8235V78.3088ZM67.4188 74.0041H14.2846V36.1011H35.8388H45.9193H67.4188V74.0041ZM45.077 34.4107H36.6811V27.6085H45.077V34.4107ZM76.0514 25.9181H45.9193H35.8388H5.65116C3.80739 25.9181 2.14219 23.6994 1.76568 21.6253H17.6403H40.7291H40.7771H40.794H63.866H63.8828H79.9385C79.5603 23.6994 77.8951 25.9181 76.0514 25.9181Z" fill="#C3967C"/>
</svg>
